# Tiled2Unity generated file. Do not modify by hand.
# Wavefront file for 'C_Start_mesh_0007.obj'

# Vertices (Count = 32)
v -11.52 -7.04 0
v -11.84 -7.04 0
v -11.84 -6.72 0
v -11.52 -6.72 0
v -11.84 -7.04 0
v -12.16 -7.04 0
v -12.16 -6.72 0
v -11.84 -6.72 0
v -12.16 -7.04 0
v -12.48 -7.04 0
v -12.48 -6.72 0
v -12.16 -6.72 0
v -12.48 -7.04 0
v -12.8 -7.04 0
v -12.8 -6.72 0
v -12.48 -6.72 0
v -11.52 -7.36 0
v -11.84 -7.36 0
v -11.84 -7.04 0
v -11.52 -7.04 0
v -11.84 -7.36 0
v -12.16 -7.36 0
v -12.16 -7.04 0
v -11.84 -7.04 0
v -12.16 -7.36 0
v -12.48 -7.36 0
v -12.48 -7.04 0
v -12.16 -7.04 0
v -12.48 -7.36 0
v -12.8 -7.36 0
v -12.8 -7.04 0
v -12.48 -7.04 0

# Texture cooridinates (Count = 15)
vt 0 0.5
vt 0.25 0.5
vt 0.25 1
vt 0 1
vt 0.5 0.5
vt 0.5 1
vt 0.75 0.5
vt 0.75 1
vt 1 0.5
vt 1 1
vt 0 0
vt 0.25 0
vt 0.5 0
vt 0.75 0
vt 1 0

# Normal
vn 0 0 -1

# Mesh description
g C_Start_mesh_0007

# Faces
f 1/1/1 2/2/1 3/3/1 4/4/1
f 5/2/1 6/5/1 7/6/1 8/3/1
f 9/5/1 10/7/1 11/8/1 12/6/1
f 13/7/1 14/9/1 15/10/1 16/8/1
f 17/11/1 18/12/1 19/2/1 20/1/1
f 21/12/1 22/13/1 23/5/1 24/2/1
f 25/13/1 26/14/1 27/7/1 28/5/1
f 29/14/1 30/15/1 31/9/1 32/7/1

