# Tiled2Unity generated file. Do not modify by hand.
# Wavefront file for 'C_Start_mesh_0021.obj'

# Vertices (Count = 100)
v -8 -2.56 0
v -8.32 -2.56 0
v -8.32 -2.24 0
v -8 -2.24 0
v -11.2 -2.56 0
v -11.52 -2.56 0
v -11.52 -2.24 0
v -11.2 -2.24 0
v -23.36 -2.88 0
v -23.68 -2.88 0
v -23.68 -2.56 0
v -23.36 -2.56 0
v -24.64 -3.2 0
v -24.96 -3.2 0
v -24.96 -2.88 0
v -24.64 -2.88 0
v -9.599999 -3.52 0
v -9.92 -3.52 0
v -9.92 -3.2 0
v -9.599999 -3.2 0
v -20.48 -3.84 0
v -20.8 -3.84 0
v -20.8 -3.52 0
v -20.48 -3.52 0
v -23.04 -3.84 0
v -23.36 -3.84 0
v -23.36 -3.52 0
v -23.04 -3.52 0
v -24.96 -4.16 0
v -25.28 -4.16 0
v -25.28 -3.84 0
v -24.96 -3.84 0
v -14.08 -4.48 0
v -14.4 -4.48 0
v -14.4 -4.16 0
v -14.08 -4.16 0
v -14.4 -4.48 0
v -14.72 -4.48 0
v -14.72 -4.16 0
v -14.4 -4.16 0
v -12.48 -4.8 0
v -12.8 -4.8 0
v -12.8 -4.48 0
v -12.48 -4.48 0
v -21.76 -6.08 0
v -22.08 -6.08 0
v -22.08 -5.76 0
v -21.76 -5.76 0
v -0.96 -6.4 0
v -1.28 -6.4 0
v -1.28 -6.08 0
v -0.96 -6.08 0
v -0.64 -6.72 0
v -0.96 -6.72 0
v -0.96 -6.4 0
v -0.64 -6.4 0
v -15.36 -7.04 0
v -15.68 -7.04 0
v -15.68 -6.72 0
v -15.36 -6.72 0
v -4.8 -7.36 0
v -5.12 -7.36 0
v -5.12 -7.04 0
v -4.8 -7.04 0
v -21.12 -7.36 0
v -21.44 -7.36 0
v -21.44 -7.04 0
v -21.12 -7.04 0
v -14.4 -8 0
v -14.72 -8 0
v -14.72 -7.68 0
v -14.4 -7.68 0
v -6.08 -8.32 0
v -6.4 -8.32 0
v -6.4 -8 0
v -6.08 -8 0
v -17.28 -8.639999 0
v -17.6 -8.639999 0
v -17.6 -8.32 0
v -17.28 -8.32 0
v -20.16 -10.24 0
v -20.48 -10.24 0
v -20.48 -9.92 0
v -20.16 -9.92 0
v -1.28 -11.2 0
v -1.6 -11.2 0
v -1.6 -10.88 0
v -1.28 -10.88 0
v -1.6 -11.2 0
v -1.92 -11.2 0
v -1.92 -10.88 0
v -1.6 -10.88 0
v -22.72 -11.52 0
v -23.04 -11.52 0
v -23.04 -11.2 0
v -22.72 -11.2 0
v -11.2 -12.48 0
v -11.52 -12.48 0
v -11.52 -12.16 0
v -11.2 -12.16 0

# Texture cooridinates (Count = 4)
vt 0 0
vt 1 0
vt 1 1
vt 0 1

# Normal
vn 0 0 -1

# Mesh description
g C_Start_mesh_0021

# Faces
f 1/1/1 2/2/1 3/3/1 4/4/1
f 5/1/1 6/2/1 7/3/1 8/4/1
f 9/1/1 10/2/1 11/3/1 12/4/1
f 13/1/1 14/2/1 15/3/1 16/4/1
f 17/1/1 18/2/1 19/3/1 20/4/1
f 21/1/1 22/2/1 23/3/1 24/4/1
f 25/1/1 26/2/1 27/3/1 28/4/1
f 29/1/1 30/2/1 31/3/1 32/4/1
f 33/1/1 34/2/1 35/3/1 36/4/1
f 37/1/1 38/2/1 39/3/1 40/4/1
f 41/1/1 42/2/1 43/3/1 44/4/1
f 45/1/1 46/2/1 47/3/1 48/4/1
f 49/1/1 50/2/1 51/3/1 52/4/1
f 53/1/1 54/2/1 55/3/1 56/4/1
f 57/1/1 58/2/1 59/3/1 60/4/1
f 61/1/1 62/2/1 63/3/1 64/4/1
f 65/1/1 66/2/1 67/3/1 68/4/1
f 69/1/1 70/2/1 71/3/1 72/4/1
f 73/1/1 74/2/1 75/3/1 76/4/1
f 77/1/1 78/2/1 79/3/1 80/4/1
f 81/1/1 82/2/1 83/3/1 84/4/1
f 85/1/1 86/2/1 87/3/1 88/4/1
f 89/1/1 90/2/1 91/3/1 92/4/1
f 93/1/1 94/2/1 95/3/1 96/4/1
f 97/1/1 98/2/1 99/3/1 100/4/1

