# Tiled2Unity generated file. Do not modify by hand.
# Wavefront file for 'C_Start_mesh_0011.obj'

# Vertices (Count = 80)
v -1.6 -2.24 0
v -1.92 -2.24 0
v -1.92 -1.92 0
v -1.6 -1.92 0
v -6.08 -2.24 0
v -6.4 -2.24 0
v -6.4 -1.92 0
v -6.08 -1.92 0
v -0.32 -2.56 0
v -0.64 -2.56 0
v -0.64 -2.24 0
v -0.32 -2.24 0
v -5.12 -2.56 0
v -5.44 -2.56 0
v -5.44 -2.24 0
v -5.12 -2.24 0
v -8.96 -2.56 0
v -9.28 -2.56 0
v -9.28 -2.24 0
v -8.96 -2.24 0
v -7.04 -2.88 0
v -7.36 -2.88 0
v -7.36 -2.56 0
v -7.04 -2.56 0
v -10.88 -3.84 0
v -11.2 -3.84 0
v -11.2 -3.52 0
v -10.88 -3.52 0
v -7.36 -4.16 0
v -7.68 -4.16 0
v -7.68 -3.84 0
v -7.36 -3.84 0
v -9.599999 -4.8 0
v -9.92 -4.8 0
v -9.92 -4.48 0
v -9.599999 -4.48 0
v -1.28 -5.12 0
v -1.6 -5.12 0
v -1.6 -4.8 0
v -1.28 -4.8 0
v -21.12 -5.76 0
v -21.44 -5.76 0
v -21.44 -5.44 0
v -21.12 -5.44 0
v -0.32 -6.08 0
v -0.64 -6.08 0
v -0.64 -5.76 0
v -0.32 -5.76 0
v -1.28 -6.4 0
v -1.6 -6.4 0
v -1.6 -6.08 0
v -1.28 -6.08 0
v -23.04 -6.4 0
v -23.36 -6.4 0
v -23.36 -6.08 0
v -23.04 -6.08 0
v -0.32 -7.04 0
v -0.64 -7.04 0
v -0.64 -6.72 0
v -0.32 -6.72 0
v -0.96 -7.68 0
v -1.28 -7.68 0
v -1.28 -7.36 0
v -0.96 -7.36 0
v -24.64 -7.68 0
v -24.96 -7.68 0
v -24.96 -7.36 0
v -24.64 -7.36 0
v -23.68 -8 0
v -24 -8 0
v -24 -7.68 0
v -23.68 -7.68 0
v -22.4 -8.32 0
v -22.72 -8.32 0
v -22.72 -8 0
v -22.4 -8 0
v -19.84 -8.639999 0
v -20.16 -8.639999 0
v -20.16 -8.32 0
v -19.84 -8.32 0

# Texture cooridinates (Count = 4)
vt 0.6666667 0.6666666
vt 0.8333333 0.6666666
vt 0.8333333 1
vt 0.6666667 1

# Normal
vn 0 0 -1

# Mesh description
g C_Start_mesh_0011

# Faces
f 1/1/1 2/2/1 3/3/1 4/4/1
f 5/1/1 6/2/1 7/3/1 8/4/1
f 9/1/1 10/2/1 11/3/1 12/4/1
f 13/1/1 14/2/1 15/3/1 16/4/1
f 17/1/1 18/2/1 19/3/1 20/4/1
f 21/1/1 22/2/1 23/3/1 24/4/1
f 25/1/1 26/2/1 27/3/1 28/4/1
f 29/1/1 30/2/1 31/3/1 32/4/1
f 33/1/1 34/2/1 35/3/1 36/4/1
f 37/1/1 38/2/1 39/3/1 40/4/1
f 41/1/1 42/2/1 43/3/1 44/4/1
f 45/1/1 46/2/1 47/3/1 48/4/1
f 49/1/1 50/2/1 51/3/1 52/4/1
f 53/1/1 54/2/1 55/3/1 56/4/1
f 57/1/1 58/2/1 59/3/1 60/4/1
f 61/1/1 62/2/1 63/3/1 64/4/1
f 65/1/1 66/2/1 67/3/1 68/4/1
f 69/1/1 70/2/1 71/3/1 72/4/1
f 73/1/1 74/2/1 75/3/1 76/4/1
f 77/1/1 78/2/1 79/3/1 80/4/1

