# Tiled2Unity generated file. Do not modify by hand.
# Wavefront file for 'C_Start_mesh_0004.obj'

# Vertices (Count = 164)
v -8 -2.56 0
v -8.32 -2.56 0
v -8.32 -2.24 0
v -8 -2.24 0
v -11.2 -2.56 0
v -11.52 -2.56 0
v -11.52 -2.24 0
v -11.2 -2.24 0
v -0.96 -2.88 0
v -1.28 -2.88 0
v -1.28 -2.56 0
v -0.96 -2.56 0
v -23.36 -2.88 0
v -23.68 -2.88 0
v -23.68 -2.56 0
v -23.36 -2.56 0
v -23.68 -2.88 0
v -24 -2.88 0
v -24 -2.56 0
v -23.68 -2.56 0
v -24.64 -3.2 0
v -24.96 -3.2 0
v -24.96 -2.88 0
v -24.64 -2.88 0
v -6.08 -3.52 0
v -6.4 -3.52 0
v -6.4 -3.2 0
v -6.08 -3.2 0
v -9.599999 -3.52 0
v -9.92 -3.52 0
v -9.92 -3.2 0
v -9.599999 -3.2 0
v -20.48 -3.52 0
v -20.8 -3.52 0
v -20.8 -3.2 0
v -20.48 -3.2 0
v -22.08 -3.52 0
v -22.4 -3.52 0
v -22.4 -3.2 0
v -22.08 -3.2 0
v -22.4 -3.52 0
v -22.72 -3.52 0
v -22.72 -3.2 0
v -22.4 -3.2 0
v -6.08 -3.84 0
v -6.4 -3.84 0
v -6.4 -3.52 0
v -6.08 -3.52 0
v -18.88 -3.84 0
v -19.2 -3.84 0
v -19.2 -3.52 0
v -18.88 -3.52 0
v -20.48 -3.84 0
v -20.8 -3.84 0
v -20.8 -3.52 0
v -20.48 -3.52 0
v -23.04 -3.84 0
v -23.36 -3.84 0
v -23.36 -3.52 0
v -23.04 -3.52 0
v -18.88 -4.16 0
v -19.2 -4.16 0
v -19.2 -3.84 0
v -18.88 -3.84 0
v -20.48 -4.16 0
v -20.8 -4.16 0
v -20.8 -3.84 0
v -20.48 -3.84 0
v -24.96 -4.16 0
v -25.28 -4.16 0
v -25.28 -3.84 0
v -24.96 -3.84 0
v -14.08 -4.48 0
v -14.4 -4.48 0
v -14.4 -4.16 0
v -14.08 -4.16 0
v -14.4 -4.48 0
v -14.72 -4.48 0
v -14.72 -4.16 0
v -14.4 -4.16 0
v -18.88 -4.48 0
v -19.2 -4.48 0
v -19.2 -4.16 0
v -18.88 -4.16 0
v -9.92 -4.8 0
v -10.24 -4.8 0
v -10.24 -4.48 0
v -9.92 -4.48 0
v -12.48 -4.8 0
v -12.8 -4.8 0
v -12.8 -4.48 0
v -12.48 -4.48 0
v -12.8 -4.8 0
v -13.12 -4.8 0
v -13.12 -4.48 0
v -12.8 -4.48 0
v -14.4 -4.8 0
v -14.72 -4.8 0
v -14.72 -4.48 0
v -14.4 -4.48 0
v -14.72 -4.8 0
v -15.04 -4.8 0
v -15.04 -4.48 0
v -14.72 -4.48 0
v -9.92 -5.12 0
v -10.24 -5.12 0
v -10.24 -4.8 0
v -9.92 -4.8 0
v -21.76 -6.08 0
v -22.08 -6.08 0
v -22.08 -5.76 0
v -21.76 -5.76 0
v -0.96 -6.4 0
v -1.28 -6.4 0
v -1.28 -6.08 0
v -0.96 -6.08 0
v -23.36 -6.4 0
v -23.68 -6.4 0
v -23.68 -6.08 0
v -23.36 -6.08 0
v -0.64 -6.72 0
v -0.96 -6.72 0
v -0.96 -6.4 0
v -0.64 -6.4 0
v -15.36 -7.04 0
v -15.68 -7.04 0
v -15.68 -6.72 0
v -15.36 -6.72 0
v -4.8 -7.36 0
v -5.12 -7.36 0
v -5.12 -7.04 0
v -4.8 -7.04 0
v -21.12 -7.36 0
v -21.44 -7.36 0
v -21.44 -7.04 0
v -21.12 -7.04 0
v -24.96 -7.36 0
v -25.28 -7.36 0
v -25.28 -7.04 0
v -24.96 -7.04 0
v -14.4 -8 0
v -14.72 -8 0
v -14.72 -7.68 0
v -14.4 -7.68 0
v -23.68 -8 0
v -24 -8 0
v -24 -7.68 0
v -23.68 -7.68 0
v -6.08 -8.32 0
v -6.4 -8.32 0
v -6.4 -8 0
v -6.08 -8 0
v -12.8 -8.639999 0
v -13.12 -8.639999 0
v -13.12 -8.32 0
v -12.8 -8.32 0
v -17.28 -8.639999 0
v -17.6 -8.639999 0
v -17.6 -8.32 0
v -17.28 -8.32 0
v -20.16 -10.24 0
v -20.48 -10.24 0
v -20.48 -9.92 0
v -20.16 -9.92 0

# Texture cooridinates (Count = 6)
vt 0 0
vt 0.5 0
vt 0.5 1
vt 0 1
vt 1 0
vt 1 1

# Normal
vn 0 0 -1

# Mesh description
g C_Start_mesh_0004

# Faces
f 1/1/1 2/2/1 3/3/1 4/4/1
f 5/1/1 6/2/1 7/3/1 8/4/1
f 9/2/1 10/5/1 11/6/1 12/3/1
f 13/1/1 14/2/1 15/3/1 16/4/1
f 17/2/1 18/5/1 19/6/1 20/3/1
f 21/1/1 22/2/1 23/3/1 24/4/1
f 25/2/1 26/5/1 27/6/1 28/3/1
f 29/1/1 30/2/1 31/3/1 32/4/1
f 33/2/1 34/5/1 35/6/1 36/3/1
f 37/2/1 38/5/1 39/6/1 40/3/1
f 41/2/1 42/5/1 43/6/1 44/3/1
f 45/2/1 46/5/1 47/6/1 48/3/1
f 49/2/1 50/5/1 51/6/1 52/3/1
f 53/1/1 54/2/1 55/3/1 56/4/1
f 57/1/1 58/2/1 59/3/1 60/4/1
f 61/2/1 62/5/1 63/6/1 64/3/1
f 65/2/1 66/5/1 67/6/1 68/3/1
f 69/1/1 70/2/1 71/3/1 72/4/1
f 73/1/1 74/2/1 75/3/1 76/4/1
f 77/1/1 78/2/1 79/3/1 80/4/1
f 81/2/1 82/5/1 83/6/1 84/3/1
f 85/2/1 86/5/1 87/6/1 88/3/1
f 89/1/1 90/2/1 91/3/1 92/4/1
f 93/2/1 94/5/1 95/6/1 96/3/1
f 97/2/1 98/5/1 99/6/1 100/3/1
f 101/2/1 102/5/1 103/6/1 104/3/1
f 105/2/1 106/5/1 107/6/1 108/3/1
f 109/1/1 110/2/1 111/3/1 112/4/1
f 113/1/1 114/2/1 115/3/1 116/4/1
f 117/2/1 118/5/1 119/6/1 120/3/1
f 121/1/1 122/2/1 123/3/1 124/4/1
f 125/1/1 126/2/1 127/3/1 128/4/1
f 129/1/1 130/2/1 131/3/1 132/4/1
f 133/1/1 134/2/1 135/3/1 136/4/1
f 137/1/1 138/2/1 139/3/1 140/4/1
f 141/1/1 142/2/1 143/3/1 144/4/1
f 145/2/1 146/5/1 147/6/1 148/3/1
f 149/1/1 150/2/1 151/3/1 152/4/1
f 153/2/1 154/5/1 155/6/1 156/3/1
f 157/1/1 158/2/1 159/3/1 160/4/1
f 161/1/1 162/2/1 163/3/1 164/4/1

