# Tiled2Unity generated file. Do not modify by hand.
# Wavefront file for 'C_Start_mesh_0002.obj'

# Vertices (Count = 24)
v -15.68 -11.52 0
v -16 -11.52 0
v -16 -11.2 0
v -15.68 -11.2 0
v -15.36 -11.84 0
v -15.68 -11.84 0
v -15.68 -11.52 0
v -15.36 -11.52 0
v -15.68 -11.84 0
v -16 -11.84 0
v -16 -11.52 0
v -15.68 -11.52 0
v -15.04 -12.16 0
v -15.36 -12.16 0
v -15.36 -11.84 0
v -15.04 -11.84 0
v -15.36 -12.16 0
v -15.68 -12.16 0
v -15.68 -11.84 0
v -15.36 -11.84 0
v -15.04 -12.48 0
v -15.36 -12.48 0
v -15.36 -12.16 0
v -15.04 -12.16 0

# Texture cooridinates (Count = 4)
vt 0 0
vt 0.5 0
vt 0.5 1
vt 0 1

# Normal
vn 0 0 -1

# Mesh description
g C_Start_mesh_0002

# Faces
f 1/1/1 2/2/1 3/3/1 4/4/1
f 5/1/1 6/2/1 7/3/1 8/4/1
f 9/1/1 10/2/1 11/3/1 12/4/1
f 13/1/1 14/2/1 15/3/1 16/4/1
f 17/1/1 18/2/1 19/3/1 20/4/1
f 21/1/1 22/2/1 23/3/1 24/4/1

