# Tiled2Unity generated file. Do not modify by hand.
# Wavefront file for 'C_Start_mesh_0008.obj'

# Vertices (Count = 52)
v -0.64 -10.88 0
v -0.96 -10.88 0
v -0.96 -10.56 0
v -0.64 -10.56 0
v -1.28 -10.88 0
v -1.6 -10.88 0
v -1.6 -10.56 0
v -1.28 -10.56 0
v -1.6 -10.88 0
v -1.92 -10.88 0
v -1.92 -10.56 0
v -1.6 -10.56 0
v -1.28 -11.2 0
v -1.6 -11.2 0
v -1.6 -10.88 0
v -1.28 -10.88 0
v -1.6 -11.2 0
v -1.92 -11.2 0
v -1.92 -10.88 0
v -1.6 -10.88 0
v -23.04 -11.2 0
v -23.36 -11.2 0
v -23.36 -10.88 0
v -23.04 -10.88 0
v -1.6 -11.52 0
v -1.92 -11.52 0
v -1.92 -11.2 0
v -1.6 -11.2 0
v -22.72 -11.52 0
v -23.04 -11.52 0
v -23.04 -11.2 0
v -22.72 -11.2 0
v -24.96 -12.16 0
v -25.28 -12.16 0
v -25.28 -11.84 0
v -24.96 -11.84 0
v -10.88 -12.48 0
v -11.2 -12.48 0
v -11.2 -12.16 0
v -10.88 -12.16 0
v -11.2 -12.48 0
v -11.52 -12.48 0
v -11.52 -12.16 0
v -11.2 -12.16 0
v -11.52 -12.48 0
v -11.84 -12.48 0
v -11.84 -12.16 0
v -11.52 -12.16 0
v -7.68 -13.44 0
v -8 -13.44 0
v -8 -13.12 0
v -7.68 -13.12 0

# Texture cooridinates (Count = 6)
vt 0.5 0
vt 1 0
vt 1 1
vt 0.5 1
vt 0 0
vt 0 1

# Normal
vn 0 0 -1

# Mesh description
g C_Start_mesh_0008

# Faces
f 1/1/1 2/2/1 3/3/1 4/4/1
f 5/1/1 6/2/1 7/3/1 8/4/1
f 9/1/1 10/2/1 11/3/1 12/4/1
f 13/5/1 14/1/1 15/4/1 16/6/1
f 17/5/1 18/1/1 19/4/1 20/6/1
f 21/1/1 22/2/1 23/3/1 24/4/1
f 25/1/1 26/2/1 27/3/1 28/4/1
f 29/5/1 30/1/1 31/4/1 32/6/1
f 33/1/1 34/2/1 35/3/1 36/4/1
f 37/1/1 38/2/1 39/3/1 40/4/1
f 41/5/1 42/1/1 43/4/1 44/6/1
f 45/1/1 46/2/1 47/3/1 48/4/1
f 49/1/1 50/2/1 51/3/1 52/4/1

