# Tiled2Unity generated file. Do not modify by hand.
# Wavefront file for 'C_Start_mesh_0015.obj'

# Vertices (Count = 800)
v -0.32 -0.32 0
v -0.64 -0.32 0
v -0.64 0 0
v -0.32 0 0
v -0.64 -0.32 0
v -0.96 -0.32 0
v -0.96 0 0
v -0.64 0 0
v -0.96 -0.32 0
v -1.28 -0.32 0
v -1.28 0 0
v -0.96 0 0
v -2.24 -0.32 0
v -2.56 -0.32 0
v -2.56 0 0
v -2.24 0 0
v -2.56 -0.32 0
v -2.88 -0.32 0
v -2.88 0 0
v -2.56 0 0
v -2.88 -0.32 0
v -3.2 -0.32 0
v -3.2 0 0
v -2.88 0 0
v -0.32 -0.64 0
v -0.64 -0.64 0
v -0.64 -0.32 0
v -0.32 -0.32 0
v -0.64 -0.64 0
v -0.96 -0.64 0
v -0.96 -0.32 0
v -0.64 -0.32 0
v -0.96 -0.64 0
v -1.28 -0.64 0
v -1.28 -0.32 0
v -0.96 -0.32 0
v -2.24 -0.64 0
v -2.56 -0.64 0
v -2.56 -0.32 0
v -2.24 -0.32 0
v -2.56 -0.64 0
v -2.88 -0.64 0
v -2.88 -0.32 0
v -2.56 -0.32 0
v -2.88 -0.64 0
v -3.2 -0.64 0
v -3.2 -0.32 0
v -2.88 -0.32 0
v -0.32 -0.96 0
v -0.64 -0.96 0
v -0.64 -0.64 0
v -0.32 -0.64 0
v -0.64 -0.96 0
v -0.96 -0.96 0
v -0.96 -0.64 0
v -0.64 -0.64 0
v -0.96 -0.96 0
v -1.28 -0.96 0
v -1.28 -0.64 0
v -0.96 -0.64 0
v -12.16 -2.24 0
v -12.48 -2.24 0
v -12.48 -1.92 0
v -12.16 -1.92 0
v -12.48 -2.24 0
v -12.8 -2.24 0
v -12.8 -1.92 0
v -12.48 -1.92 0
v -12.8 -2.24 0
v -13.12 -2.24 0
v -13.12 -1.92 0
v -12.8 -1.92 0
v -14.4 -2.24 0
v -14.72 -2.24 0
v -14.72 -1.92 0
v -14.4 -1.92 0
v -14.72 -2.24 0
v -15.04 -2.24 0
v -15.04 -1.92 0
v -14.72 -1.92 0
v -15.04 -2.24 0
v -15.36 -2.24 0
v -15.36 -1.92 0
v -15.04 -1.92 0
v -12.16 -2.56 0
v -12.48 -2.56 0
v -12.48 -2.24 0
v -12.16 -2.24 0
v -12.48 -2.56 0
v -12.8 -2.56 0
v -12.8 -2.24 0
v -12.48 -2.24 0
v -12.8 -2.56 0
v -13.12 -2.56 0
v -13.12 -2.24 0
v -12.8 -2.24 0
v -14.4 -2.56 0
v -14.72 -2.56 0
v -14.72 -2.24 0
v -14.4 -2.24 0
v -14.72 -2.56 0
v -15.04 -2.56 0
v -15.04 -2.24 0
v -14.72 -2.24 0
v -15.04 -2.56 0
v -15.36 -2.56 0
v -15.36 -2.24 0
v -15.04 -2.24 0
v -22.08 -2.56 0
v -22.4 -2.56 0
v -22.4 -2.24 0
v -22.08 -2.24 0
v -22.4 -2.56 0
v -22.72 -2.56 0
v -22.72 -2.24 0
v -22.4 -2.24 0
v -22.72 -2.56 0
v -23.04 -2.56 0
v -23.04 -2.24 0
v -22.72 -2.24 0
v -12.16 -2.88 0
v -12.48 -2.88 0
v -12.48 -2.56 0
v -12.16 -2.56 0
v -12.48 -2.88 0
v -12.8 -2.88 0
v -12.8 -2.56 0
v -12.48 -2.56 0
v -12.8 -2.88 0
v -13.12 -2.88 0
v -13.12 -2.56 0
v -12.8 -2.56 0
v -14.4 -2.88 0
v -14.72 -2.88 0
v -14.72 -2.56 0
v -14.4 -2.56 0
v -14.72 -2.88 0
v -15.04 -2.88 0
v -15.04 -2.56 0
v -14.72 -2.56 0
v -15.04 -2.88 0
v -15.36 -2.88 0
v -15.36 -2.56 0
v -15.04 -2.56 0
v -16.64 -2.88 0
v -16.96 -2.88 0
v -16.96 -2.56 0
v -16.64 -2.56 0
v -16.96 -2.88 0
v -17.28 -2.88 0
v -17.28 -2.56 0
v -16.96 -2.56 0
v -17.28 -2.88 0
v -17.6 -2.88 0
v -17.6 -2.56 0
v -17.28 -2.56 0
v -22.08 -2.88 0
v -22.4 -2.88 0
v -22.4 -2.56 0
v -22.08 -2.56 0
v -22.4 -2.88 0
v -22.72 -2.88 0
v -22.72 -2.56 0
v -22.4 -2.56 0
v -22.72 -2.88 0
v -23.04 -2.88 0
v -23.04 -2.56 0
v -22.72 -2.56 0
v -12.16 -3.2 0
v -12.48 -3.2 0
v -12.48 -2.88 0
v -12.16 -2.88 0
v -12.48 -3.2 0
v -12.8 -3.2 0
v -12.8 -2.88 0
v -12.48 -2.88 0
v -12.8 -3.2 0
v -13.12 -3.2 0
v -13.12 -2.88 0
v -12.8 -2.88 0
v -14.4 -3.2 0
v -14.72 -3.2 0
v -14.72 -2.88 0
v -14.4 -2.88 0
v -14.72 -3.2 0
v -15.04 -3.2 0
v -15.04 -2.88 0
v -14.72 -2.88 0
v -15.04 -3.2 0
v -15.36 -3.2 0
v -15.36 -2.88 0
v -15.04 -2.88 0
v -16.64 -3.2 0
v -16.96 -3.2 0
v -16.96 -2.88 0
v -16.64 -2.88 0
v -16.96 -3.2 0
v -17.28 -3.2 0
v -17.28 -2.88 0
v -16.96 -2.88 0
v -17.28 -3.2 0
v -17.6 -3.2 0
v -17.6 -2.88 0
v -17.28 -2.88 0
v -22.08 -3.2 0
v -22.4 -3.2 0
v -22.4 -2.88 0
v -22.08 -2.88 0
v -22.4 -3.2 0
v -22.72 -3.2 0
v -22.72 -2.88 0
v -22.4 -2.88 0
v -22.72 -3.2 0
v -23.04 -3.2 0
v -23.04 -2.88 0
v -22.72 -2.88 0
v -12.16 -3.52 0
v -12.48 -3.52 0
v -12.48 -3.2 0
v -12.16 -3.2 0
v -12.48 -3.52 0
v -12.8 -3.52 0
v -12.8 -3.2 0
v -12.48 -3.2 0
v -12.8 -3.52 0
v -13.12 -3.52 0
v -13.12 -3.2 0
v -12.8 -3.2 0
v -13.12 -3.52 0
v -13.44 -3.52 0
v -13.44 -3.2 0
v -13.12 -3.2 0
v -13.44 -3.52 0
v -13.76 -3.52 0
v -13.76 -3.2 0
v -13.44 -3.2 0
v -14.4 -3.52 0
v -14.72 -3.52 0
v -14.72 -3.2 0
v -14.4 -3.2 0
v -14.72 -3.52 0
v -15.04 -3.52 0
v -15.04 -3.2 0
v -14.72 -3.2 0
v -15.04 -3.52 0
v -15.36 -3.52 0
v -15.36 -3.2 0
v -15.04 -3.2 0
v -16.64 -3.52 0
v -16.96 -3.52 0
v -16.96 -3.2 0
v -16.64 -3.2 0
v -16.96 -3.52 0
v -17.28 -3.52 0
v -17.28 -3.2 0
v -16.96 -3.2 0
v -17.28 -3.52 0
v -17.6 -3.52 0
v -17.6 -3.2 0
v -17.28 -3.2 0
v -12.8 -3.84 0
v -13.12 -3.84 0
v -13.12 -3.52 0
v -12.8 -3.52 0
v -13.12 -3.84 0
v -13.44 -3.84 0
v -13.44 -3.52 0
v -13.12 -3.52 0
v -13.44 -3.84 0
v -13.76 -3.84 0
v -13.76 -3.52 0
v -13.44 -3.52 0
v -16.64 -3.84 0
v -16.96 -3.84 0
v -16.96 -3.52 0
v -16.64 -3.52 0
v -16.96 -3.84 0
v -17.28 -3.84 0
v -17.28 -3.52 0
v -16.96 -3.52 0
v -17.28 -3.84 0
v -17.6 -3.84 0
v -17.6 -3.52 0
v -17.28 -3.52 0
v -12.8 -4.16 0
v -13.12 -4.16 0
v -13.12 -3.84 0
v -12.8 -3.84 0
v -13.12 -4.16 0
v -13.44 -4.16 0
v -13.44 -3.84 0
v -13.12 -3.84 0
v -13.44 -4.16 0
v -13.76 -4.16 0
v -13.76 -3.84 0
v -13.44 -3.84 0
v -16.64 -4.16 0
v -16.96 -4.16 0
v -16.96 -3.84 0
v -16.64 -3.84 0
v -16.96 -4.16 0
v -17.28 -4.16 0
v -17.28 -3.84 0
v -16.96 -3.84 0
v -17.28 -4.16 0
v -17.6 -4.16 0
v -17.6 -3.84 0
v -17.28 -3.84 0
v -12.8 -4.48 0
v -13.12 -4.48 0
v -13.12 -4.16 0
v -12.8 -4.16 0
v -13.12 -4.48 0
v -13.44 -4.48 0
v -13.44 -4.16 0
v -13.12 -4.16 0
v -13.44 -4.48 0
v -13.76 -4.48 0
v -13.76 -4.16 0
v -13.44 -4.16 0
v -4.16 -4.8 0
v -4.48 -4.8 0
v -4.48 -4.48 0
v -4.16 -4.48 0
v -4.48 -4.8 0
v -4.8 -4.8 0
v -4.8 -4.48 0
v -4.48 -4.48 0
v -4.8 -4.8 0
v -5.12 -4.8 0
v -5.12 -4.48 0
v -4.8 -4.48 0
v -12.8 -4.8 0
v -13.12 -4.8 0
v -13.12 -4.48 0
v -12.8 -4.48 0
v -13.12 -4.8 0
v -13.44 -4.8 0
v -13.44 -4.48 0
v -13.12 -4.48 0
v -13.44 -4.8 0
v -13.76 -4.8 0
v -13.76 -4.48 0
v -13.44 -4.48 0
v -4.16 -5.12 0
v -4.48 -5.12 0
v -4.48 -4.8 0
v -4.16 -4.8 0
v -4.48 -5.12 0
v -4.8 -5.12 0
v -4.8 -4.8 0
v -4.48 -4.8 0
v -4.8 -5.12 0
v -5.12 -5.12 0
v -5.12 -4.8 0
v -4.8 -4.8 0
v -4.16 -5.44 0
v -4.48 -5.44 0
v -4.48 -5.12 0
v -4.16 -5.12 0
v -4.48 -5.44 0
v -4.8 -5.44 0
v -4.8 -5.12 0
v -4.48 -5.12 0
v -4.8 -5.44 0
v -5.12 -5.44 0
v -5.12 -5.12 0
v -4.8 -5.12 0
v -5.12 -5.44 0
v -5.44 -5.44 0
v -5.44 -5.12 0
v -5.12 -5.12 0
v -5.44 -5.44 0
v -5.76 -5.44 0
v -5.76 -5.12 0
v -5.44 -5.12 0
v -5.76 -5.44 0
v -6.08 -5.44 0
v -6.08 -5.12 0
v -5.76 -5.12 0
v -5.12 -5.76 0
v -5.44 -5.76 0
v -5.44 -5.44 0
v -5.12 -5.44 0
v -5.44 -5.76 0
v -5.76 -5.76 0
v -5.76 -5.44 0
v -5.44 -5.44 0
v -5.76 -5.76 0
v -6.08 -5.76 0
v -6.08 -5.44 0
v -5.76 -5.44 0
v -17.28 -5.76 0
v -17.6 -5.76 0
v -17.6 -5.44 0
v -17.28 -5.44 0
v -17.6 -5.76 0
v -17.92 -5.76 0
v -17.92 -5.44 0
v -17.6 -5.44 0
v -17.92 -5.76 0
v -18.24 -5.76 0
v -18.24 -5.44 0
v -17.92 -5.44 0
v -5.12 -6.08 0
v -5.44 -6.08 0
v -5.44 -5.76 0
v -5.12 -5.76 0
v -5.44 -6.08 0
v -5.76 -6.08 0
v -5.76 -5.76 0
v -5.44 -5.76 0
v -5.76 -6.08 0
v -6.08 -6.08 0
v -6.08 -5.76 0
v -5.76 -5.76 0
v -17.28 -6.08 0
v -17.6 -6.08 0
v -17.6 -5.76 0
v -17.28 -5.76 0
v -17.6 -6.08 0
v -17.92 -6.08 0
v -17.92 -5.76 0
v -17.6 -5.76 0
v -17.92 -6.08 0
v -18.24 -6.08 0
v -18.24 -5.76 0
v -17.92 -5.76 0
v -17.28 -6.4 0
v -17.6 -6.4 0
v -17.6 -6.08 0
v -17.28 -6.08 0
v -17.6 -6.4 0
v -17.92 -6.4 0
v -17.92 -6.08 0
v -17.6 -6.08 0
v -17.92 -6.4 0
v -18.24 -6.4 0
v -18.24 -6.08 0
v -17.92 -6.08 0
v -6.4 -6.72 0
v -6.72 -6.72 0
v -6.72 -6.4 0
v -6.4 -6.4 0
v -6.72 -6.72 0
v -7.04 -6.72 0
v -7.04 -6.4 0
v -6.72 -6.4 0
v -7.04 -6.72 0
v -7.36 -6.72 0
v -7.36 -6.4 0
v -7.04 -6.4 0
v -3.84 -7.04 0
v -4.16 -7.04 0
v -4.16 -6.72 0
v -3.84 -6.72 0
v -4.16 -7.04 0
v -4.48 -7.04 0
v -4.48 -6.72 0
v -4.16 -6.72 0
v -4.48 -7.04 0
v -4.8 -7.04 0
v -4.8 -6.72 0
v -4.48 -6.72 0
v -6.4 -7.04 0
v -6.72 -7.04 0
v -6.72 -6.72 0
v -6.4 -6.72 0
v -6.72 -7.04 0
v -7.04 -7.04 0
v -7.04 -6.72 0
v -6.72 -6.72 0
v -7.04 -7.04 0
v -7.36 -7.04 0
v -7.36 -6.72 0
v -7.04 -6.72 0
v -17.92 -7.04 0
v -18.24 -7.04 0
v -18.24 -6.72 0
v -17.92 -6.72 0
v -18.24 -7.04 0
v -18.56 -7.04 0
v -18.56 -6.72 0
v -18.24 -6.72 0
v -18.56 -7.04 0
v -18.88 -7.04 0
v -18.88 -6.72 0
v -18.56 -6.72 0
v -3.84 -7.36 0
v -4.16 -7.36 0
v -4.16 -7.04 0
v -3.84 -7.04 0
v -4.16 -7.36 0
v -4.48 -7.36 0
v -4.48 -7.04 0
v -4.16 -7.04 0
v -4.48 -7.36 0
v -4.8 -7.36 0
v -4.8 -7.04 0
v -4.48 -7.04 0
v -6.4 -7.36 0
v -6.72 -7.36 0
v -6.72 -7.04 0
v -6.4 -7.04 0
v -6.72 -7.36 0
v -7.04 -7.36 0
v -7.04 -7.04 0
v -6.72 -7.04 0
v -7.04 -7.36 0
v -7.36 -7.36 0
v -7.36 -7.04 0
v -7.04 -7.04 0
v -7.36 -7.36 0
v -7.68 -7.36 0
v -7.68 -7.04 0
v -7.36 -7.04 0
v -7.68 -7.36 0
v -8 -7.36 0
v -8 -7.04 0
v -7.68 -7.04 0
v -8 -7.36 0
v -8.32 -7.36 0
v -8.32 -7.04 0
v -8 -7.04 0
v -17.92 -7.36 0
v -18.24 -7.36 0
v -18.24 -7.04 0
v -17.92 -7.04 0
v -18.24 -7.36 0
v -18.56 -7.36 0
v -18.56 -7.04 0
v -18.24 -7.04 0
v -18.56 -7.36 0
v -18.88 -7.36 0
v -18.88 -7.04 0
v -18.56 -7.04 0
v -3.84 -7.68 0
v -4.16 -7.68 0
v -4.16 -7.36 0
v -3.84 -7.36 0
v -4.16 -7.68 0
v -4.48 -7.68 0
v -4.48 -7.36 0
v -4.16 -7.36 0
v -4.48 -7.68 0
v -4.8 -7.68 0
v -4.8 -7.36 0
v -4.48 -7.36 0
v -7.36 -7.68 0
v -7.68 -7.68 0
v -7.68 -7.36 0
v -7.36 -7.36 0
v -7.68 -7.68 0
v -8 -7.68 0
v -8 -7.36 0
v -7.68 -7.36 0
v -8 -7.68 0
v -8.32 -7.68 0
v -8.32 -7.36 0
v -8 -7.36 0
v -15.68 -7.68 0
v -16 -7.68 0
v -16 -7.36 0
v -15.68 -7.36 0
v -16 -7.68 0
v -16.32 -7.68 0
v -16.32 -7.36 0
v -16 -7.36 0
v -16.32 -7.68 0
v -16.64 -7.68 0
v -16.64 -7.36 0
v -16.32 -7.36 0
v -17.92 -7.68 0
v -18.24 -7.68 0
v -18.24 -7.36 0
v -17.92 -7.36 0
v -18.24 -7.68 0
v -18.56 -7.68 0
v -18.56 -7.36 0
v -18.24 -7.36 0
v -18.56 -7.68 0
v -18.88 -7.68 0
v -18.88 -7.36 0
v -18.56 -7.36 0
v -5.44 -8 0
v -5.76 -8 0
v -5.76 -7.68 0
v -5.44 -7.68 0
v -5.76 -8 0
v -6.08 -8 0
v -6.08 -7.68 0
v -5.76 -7.68 0
v -6.08 -8 0
v -6.4 -8 0
v -6.4 -7.68 0
v -6.08 -7.68 0
v -7.36 -8 0
v -7.68 -8 0
v -7.68 -7.68 0
v -7.36 -7.68 0
v -7.68 -8 0
v -8 -8 0
v -8 -7.68 0
v -7.68 -7.68 0
v -8 -8 0
v -8.32 -8 0
v -8.32 -7.68 0
v -8 -7.68 0
v -15.68 -8 0
v -16 -8 0
v -16 -7.68 0
v -15.68 -7.68 0
v -16 -8 0
v -16.32 -8 0
v -16.32 -7.68 0
v -16 -7.68 0
v -16.32 -8 0
v -16.64 -8 0
v -16.64 -7.68 0
v -16.32 -7.68 0
v -5.44 -8.32 0
v -5.76 -8.32 0
v -5.76 -8 0
v -5.44 -8 0
v -5.76 -8.32 0
v -6.08 -8.32 0
v -6.08 -8 0
v -5.76 -8 0
v -6.08 -8.32 0
v -6.4 -8.32 0
v -6.4 -8 0
v -6.08 -8 0
v -8 -8.32 0
v -8.32 -8.32 0
v -8.32 -8 0
v -8 -8 0
v -8.32 -8.32 0
v -8.639999 -8.32 0
v -8.639999 -8 0
v -8.32 -8 0
v -8.639999 -8.32 0
v -8.96 -8.32 0
v -8.96 -8 0
v -8.639999 -8 0
v -15.68 -8.32 0
v -16 -8.32 0
v -16 -8 0
v -15.68 -8 0
v -16 -8.32 0
v -16.32 -8.32 0
v -16.32 -8 0
v -16 -8 0
v -16.32 -8.32 0
v -16.64 -8.32 0
v -16.64 -8 0
v -16.32 -8 0
v -5.44 -8.639999 0
v -5.76 -8.639999 0
v -5.76 -8.32 0
v -5.44 -8.32 0
v -5.76 -8.639999 0
v -6.08 -8.639999 0
v -6.08 -8.32 0
v -5.76 -8.32 0
v -6.08 -8.639999 0
v -6.4 -8.639999 0
v -6.4 -8.32 0
v -6.08 -8.32 0
v -8 -8.639999 0
v -8.32 -8.639999 0
v -8.32 -8.32 0
v -8 -8.32 0
v -8.32 -8.639999 0
v -8.639999 -8.639999 0
v -8.639999 -8.32 0
v -8.32 -8.32 0
v -8.639999 -8.639999 0
v -8.96 -8.639999 0
v -8.96 -8.32 0
v -8.639999 -8.32 0
v -8 -8.96 0
v -8.32 -8.96 0
v -8.32 -8.639999 0
v -8 -8.639999 0
v -8.32 -8.96 0
v -8.639999 -8.96 0
v -8.639999 -8.639999 0
v -8.32 -8.639999 0
v -8.639999 -8.96 0
v -8.96 -8.96 0
v -8.96 -8.639999 0
v -8.639999 -8.639999 0
v -18.56 -8.96 0
v -18.88 -8.96 0
v -18.88 -8.639999 0
v -18.56 -8.639999 0
v -18.88 -8.96 0
v -19.2 -8.96 0
v -19.2 -8.639999 0
v -18.88 -8.639999 0
v -19.2 -8.96 0
v -19.52 -8.96 0
v -19.52 -8.639999 0
v -19.2 -8.639999 0
v -18.56 -9.28 0
v -18.88 -9.28 0
v -18.88 -8.96 0
v -18.56 -8.96 0
v -18.88 -9.28 0
v -19.2 -9.28 0
v -19.2 -8.96 0
v -18.88 -8.96 0
v -19.2 -9.28 0
v -19.52 -9.28 0
v -19.52 -8.96 0
v -19.2 -8.96 0
v -7.36 -9.599999 0
v -7.68 -9.599999 0
v -7.68 -9.28 0
v -7.36 -9.28 0
v -7.68 -9.599999 0
v -8 -9.599999 0
v -8 -9.28 0
v -7.68 -9.28 0
v -8 -9.599999 0
v -8.32 -9.599999 0
v -8.32 -9.28 0
v -8 -9.28 0
v -8.96 -9.599999 0
v -9.28 -9.599999 0
v -9.28 -9.28 0
v -8.96 -9.28 0
v -9.28 -9.599999 0
v -9.599999 -9.599999 0
v -9.599999 -9.28 0
v -9.28 -9.28 0
v -9.599999 -9.599999 0
v -9.92 -9.599999 0
v -9.92 -9.28 0
v -9.599999 -9.28 0
v -18.56 -9.599999 0
v -18.88 -9.599999 0
v -18.88 -9.28 0
v -18.56 -9.28 0
v -18.88 -9.599999 0
v -19.2 -9.599999 0
v -19.2 -9.28 0
v -18.88 -9.28 0
v -19.2 -9.599999 0
v -19.52 -9.599999 0
v -19.52 -9.28 0
v -19.2 -9.28 0
v -7.36 -9.92 0
v -7.68 -9.92 0
v -7.68 -9.599999 0
v -7.36 -9.599999 0
v -7.68 -9.92 0
v -8 -9.92 0
v -8 -9.599999 0
v -7.68 -9.599999 0
v -8 -9.92 0
v -8.32 -9.92 0
v -8.32 -9.599999 0
v -8 -9.599999 0
v -8.96 -9.92 0
v -9.28 -9.92 0
v -9.28 -9.599999 0
v -8.96 -9.599999 0
v -9.28 -9.92 0
v -9.599999 -9.92 0
v -9.599999 -9.599999 0
v -9.28 -9.599999 0
v -9.599999 -9.92 0
v -9.92 -9.92 0
v -9.92 -9.599999 0
v -9.599999 -9.599999 0
v -7.36 -10.24 0
v -7.68 -10.24 0
v -7.68 -9.92 0
v -7.36 -9.92 0
v -7.68 -10.24 0
v -8 -10.24 0
v -8 -9.92 0
v -7.68 -9.92 0
v -8 -10.24 0
v -8.32 -10.24 0
v -8.32 -9.92 0
v -8 -9.92 0
v -8.96 -10.24 0
v -9.28 -10.24 0
v -9.28 -9.92 0
v -8.96 -9.92 0
v -9.28 -10.24 0
v -9.599999 -10.24 0
v -9.599999 -9.92 0
v -9.28 -9.92 0
v -9.599999 -10.24 0
v -9.92 -10.24 0
v -9.92 -9.92 0
v -9.599999 -9.92 0

# Texture cooridinates (Count = 24)
vt 0.4615385 0.6153846
vt 0.5384616 0.6153846
vt 0.5384616 0.6923077
vt 0.4615385 0.6923077
vt 0.6153846 0.6153846
vt 0.6153846 0.6923077
vt 0.6923077 0.6153846
vt 0.6923077 0.6923077
vt 0.4615385 0.5384616
vt 0.5384616 0.5384616
vt 0.6153846 0.5384616
vt 0.6923077 0.5384616
vt 0.4615385 0.4615384
vt 0.5384616 0.4615384
vt 0.6153846 0.4615384
vt 0.6923077 0.4615384
vt 0.4615385 0.3846154
vt 0.5384616 0.3846154
vt 0.6153846 0.3846154
vt 0.6923077 0.3846154
vt 0.4615385 0.3076923
vt 0.5384616 0.3076923
vt 0.6153846 0.3076923
vt 0.6923077 0.3076923

# Normal
vn 0 0 -1

# Mesh description
g C_Start_mesh_0015

# Faces
f 1/1/1 2/2/1 3/3/1 4/4/1
f 5/2/1 6/5/1 7/6/1 8/3/1
f 9/5/1 10/7/1 11/8/1 12/6/1
f 13/9/1 14/10/1 15/2/1 16/1/1
f 17/10/1 18/11/1 19/5/1 20/2/1
f 21/11/1 22/12/1 23/7/1 24/5/1
f 25/9/1 26/10/1 27/2/1 28/1/1
f 29/10/1 30/11/1 31/5/1 32/2/1
f 33/11/1 34/12/1 35/7/1 36/5/1
f 37/13/1 38/14/1 39/10/1 40/9/1
f 41/14/1 42/15/1 43/11/1 44/10/1
f 45/15/1 46/16/1 47/12/1 48/11/1
f 49/13/1 50/14/1 51/10/1 52/9/1
f 53/14/1 54/15/1 55/11/1 56/10/1
f 57/15/1 58/16/1 59/12/1 60/11/1
f 61/1/1 62/2/1 63/3/1 64/4/1
f 65/2/1 66/5/1 67/6/1 68/3/1
f 69/5/1 70/7/1 71/8/1 72/6/1
f 73/1/1 74/2/1 75/3/1 76/4/1
f 77/2/1 78/5/1 79/6/1 80/3/1
f 81/5/1 82/7/1 83/8/1 84/6/1
f 85/9/1 86/10/1 87/2/1 88/1/1
f 89/10/1 90/11/1 91/5/1 92/2/1
f 93/11/1 94/12/1 95/7/1 96/5/1
f 97/9/1 98/10/1 99/2/1 100/1/1
f 101/10/1 102/11/1 103/5/1 104/2/1
f 105/11/1 106/12/1 107/7/1 108/5/1
f 109/1/1 110/2/1 111/3/1 112/4/1
f 113/2/1 114/5/1 115/6/1 116/3/1
f 117/5/1 118/7/1 119/8/1 120/6/1
f 121/13/1 122/14/1 123/10/1 124/9/1
f 125/14/1 126/15/1 127/11/1 128/10/1
f 129/15/1 130/16/1 131/12/1 132/11/1
f 133/13/1 134/14/1 135/10/1 136/9/1
f 137/14/1 138/15/1 139/11/1 140/10/1
f 141/15/1 142/16/1 143/12/1 144/11/1
f 145/1/1 146/2/1 147/3/1 148/4/1
f 149/2/1 150/5/1 151/6/1 152/3/1
f 153/5/1 154/7/1 155/8/1 156/6/1
f 157/9/1 158/10/1 159/2/1 160/1/1
f 161/10/1 162/11/1 163/5/1 164/2/1
f 165/11/1 166/12/1 167/7/1 168/5/1
f 169/17/1 170/18/1 171/14/1 172/13/1
f 173/18/1 174/19/1 175/15/1 176/14/1
f 177/19/1 178/20/1 179/16/1 180/15/1
f 181/17/1 182/18/1 183/14/1 184/13/1
f 185/18/1 186/19/1 187/15/1 188/14/1
f 189/19/1 190/20/1 191/16/1 192/15/1
f 193/9/1 194/10/1 195/2/1 196/1/1
f 197/10/1 198/11/1 199/5/1 200/2/1
f 201/11/1 202/12/1 203/7/1 204/5/1
f 205/13/1 206/14/1 207/10/1 208/9/1
f 209/14/1 210/15/1 211/11/1 212/10/1
f 213/15/1 214/16/1 215/12/1 216/11/1
f 217/21/1 218/22/1 219/18/1 220/17/1
f 221/22/1 222/23/1 223/19/1 224/18/1
f 225/23/1 226/24/1 227/20/1 228/19/1
f 229/2/1 230/5/1 231/6/1 232/3/1
f 233/5/1 234/7/1 235/8/1 236/6/1
f 237/21/1 238/22/1 239/18/1 240/17/1
f 241/22/1 242/23/1 243/19/1 244/18/1
f 245/23/1 246/24/1 247/20/1 248/19/1
f 249/13/1 250/14/1 251/10/1 252/9/1
f 253/14/1 254/15/1 255/11/1 256/10/1
f 257/15/1 258/16/1 259/12/1 260/11/1
f 261/9/1 262/10/1 263/2/1 264/1/1
f 265/10/1 266/11/1 267/5/1 268/2/1
f 269/11/1 270/12/1 271/7/1 272/5/1
f 273/17/1 274/18/1 275/14/1 276/13/1
f 277/18/1 278/19/1 279/15/1 280/14/1
f 281/19/1 282/20/1 283/16/1 284/15/1
f 285/13/1 286/14/1 287/10/1 288/9/1
f 289/14/1 290/15/1 291/11/1 292/10/1
f 293/15/1 294/16/1 295/12/1 296/11/1
f 297/21/1 298/22/1 299/18/1 300/17/1
f 301/22/1 302/23/1 303/19/1 304/18/1
f 305/23/1 306/24/1 307/20/1 308/19/1
f 309/17/1 310/18/1 311/14/1 312/13/1
f 313/18/1 314/19/1 315/15/1 316/14/1
f 317/19/1 318/20/1 319/16/1 320/15/1
f 321/1/1 322/2/1 323/3/1 324/4/1
f 325/2/1 326/5/1 327/6/1 328/3/1
f 329/5/1 330/7/1 331/8/1 332/6/1
f 333/21/1 334/22/1 335/18/1 336/17/1
f 337/22/1 338/23/1 339/19/1 340/18/1
f 341/23/1 342/24/1 343/20/1 344/19/1
f 345/9/1 346/10/1 347/2/1 348/1/1
f 349/10/1 350/11/1 351/5/1 352/2/1
f 353/11/1 354/12/1 355/7/1 356/5/1
f 357/13/1 358/14/1 359/10/1 360/9/1
f 361/14/1 362/15/1 363/11/1 364/10/1
f 365/15/1 366/16/1 367/12/1 368/11/1
f 369/1/1 370/2/1 371/3/1 372/4/1
f 373/2/1 374/5/1 375/6/1 376/3/1
f 377/5/1 378/7/1 379/8/1 380/6/1
f 381/9/1 382/10/1 383/2/1 384/1/1
f 385/10/1 386/11/1 387/5/1 388/2/1
f 389/11/1 390/12/1 391/7/1 392/5/1
f 393/1/1 394/2/1 395/3/1 396/4/1
f 397/2/1 398/5/1 399/6/1 400/3/1
f 401/5/1 402/7/1 403/8/1 404/6/1
f 405/13/1 406/14/1 407/10/1 408/9/1
f 409/14/1 410/15/1 411/11/1 412/10/1
f 413/15/1 414/16/1 415/12/1 416/11/1
f 417/9/1 418/10/1 419/2/1 420/1/1
f 421/10/1 422/11/1 423/5/1 424/2/1
f 425/11/1 426/12/1 427/7/1 428/5/1
f 429/13/1 430/14/1 431/10/1 432/9/1
f 433/14/1 434/15/1 435/11/1 436/10/1
f 437/15/1 438/16/1 439/12/1 440/11/1
f 441/1/1 442/2/1 443/3/1 444/4/1
f 445/2/1 446/5/1 447/6/1 448/3/1
f 449/5/1 450/7/1 451/8/1 452/6/1
f 453/1/1 454/2/1 455/3/1 456/4/1
f 457/2/1 458/5/1 459/6/1 460/3/1
f 461/5/1 462/7/1 463/8/1 464/6/1
f 465/9/1 466/10/1 467/2/1 468/1/1
f 469/10/1 470/11/1 471/5/1 472/2/1
f 473/11/1 474/12/1 475/7/1 476/5/1
f 477/1/1 478/2/1 479/3/1 480/4/1
f 481/2/1 482/5/1 483/6/1 484/3/1
f 485/5/1 486/7/1 487/8/1 488/6/1
f 489/9/1 490/10/1 491/2/1 492/1/1
f 493/10/1 494/11/1 495/5/1 496/2/1
f 497/11/1 498/12/1 499/7/1 500/5/1
f 501/13/1 502/14/1 503/10/1 504/9/1
f 505/14/1 506/15/1 507/11/1 508/10/1
f 509/15/1 510/16/1 511/12/1 512/11/1
f 513/1/1 514/2/1 515/3/1 516/4/1
f 517/2/1 518/5/1 519/6/1 520/3/1
f 521/5/1 522/7/1 523/8/1 524/6/1
f 525/9/1 526/10/1 527/2/1 528/1/1
f 529/10/1 530/11/1 531/5/1 532/2/1
f 533/11/1 534/12/1 535/7/1 536/5/1
f 537/13/1 538/14/1 539/10/1 540/9/1
f 541/14/1 542/15/1 543/11/1 544/10/1
f 545/15/1 546/16/1 547/12/1 548/11/1
f 549/9/1 550/10/1 551/2/1 552/1/1
f 553/10/1 554/11/1 555/5/1 556/2/1
f 557/11/1 558/12/1 559/7/1 560/5/1
f 561/1/1 562/2/1 563/3/1 564/4/1
f 565/2/1 566/5/1 567/6/1 568/3/1
f 569/5/1 570/7/1 571/8/1 572/6/1
f 573/13/1 574/14/1 575/10/1 576/9/1
f 577/14/1 578/15/1 579/11/1 580/10/1
f 581/15/1 582/16/1 583/12/1 584/11/1
f 585/1/1 586/2/1 587/3/1 588/4/1
f 589/2/1 590/5/1 591/6/1 592/3/1
f 593/5/1 594/7/1 595/8/1 596/6/1
f 597/13/1 598/14/1 599/10/1 600/9/1
f 601/14/1 602/15/1 603/11/1 604/10/1
f 605/15/1 606/16/1 607/12/1 608/11/1
f 609/9/1 610/10/1 611/2/1 612/1/1
f 613/10/1 614/11/1 615/5/1 616/2/1
f 617/11/1 618/12/1 619/7/1 620/5/1
f 621/9/1 622/10/1 623/2/1 624/1/1
f 625/10/1 626/11/1 627/5/1 628/2/1
f 629/11/1 630/12/1 631/7/1 632/5/1
f 633/1/1 634/2/1 635/3/1 636/4/1
f 637/2/1 638/5/1 639/6/1 640/3/1
f 641/5/1 642/7/1 643/8/1 644/6/1
f 645/13/1 646/14/1 647/10/1 648/9/1
f 649/14/1 650/15/1 651/11/1 652/10/1
f 653/15/1 654/16/1 655/12/1 656/11/1
f 657/13/1 658/14/1 659/10/1 660/9/1
f 661/14/1 662/15/1 663/11/1 664/10/1
f 665/15/1 666/16/1 667/12/1 668/11/1
f 669/9/1 670/10/1 671/2/1 672/1/1
f 673/10/1 674/11/1 675/5/1 676/2/1
f 677/11/1 678/12/1 679/7/1 680/5/1
f 681/13/1 682/14/1 683/10/1 684/9/1
f 685/14/1 686/15/1 687/11/1 688/10/1
f 689/15/1 690/16/1 691/12/1 692/11/1
f 693/1/1 694/2/1 695/3/1 696/4/1
f 697/2/1 698/5/1 699/6/1 700/3/1
f 701/5/1 702/7/1 703/8/1 704/6/1
f 705/9/1 706/10/1 707/2/1 708/1/1
f 709/10/1 710/11/1 711/5/1 712/2/1
f 713/11/1 714/12/1 715/7/1 716/5/1
f 717/1/1 718/2/1 719/3/1 720/4/1
f 721/2/1 722/5/1 723/6/1 724/3/1
f 725/5/1 726/7/1 727/8/1 728/6/1
f 729/1/1 730/2/1 731/3/1 732/4/1
f 733/2/1 734/5/1 735/6/1 736/3/1
f 737/5/1 738/7/1 739/8/1 740/6/1
f 741/13/1 742/14/1 743/10/1 744/9/1
f 745/14/1 746/15/1 747/11/1 748/10/1
f 749/15/1 750/16/1 751/12/1 752/11/1
f 753/9/1 754/10/1 755/2/1 756/1/1
f 757/10/1 758/11/1 759/5/1 760/2/1
f 761/11/1 762/12/1 763/7/1 764/5/1
f 765/9/1 766/10/1 767/2/1 768/1/1
f 769/10/1 770/11/1 771/5/1 772/2/1
f 773/11/1 774/12/1 775/7/1 776/5/1
f 777/13/1 778/14/1 779/10/1 780/9/1
f 781/14/1 782/15/1 783/11/1 784/10/1
f 785/15/1 786/16/1 787/12/1 788/11/1
f 789/13/1 790/14/1 791/10/1 792/9/1
f 793/14/1 794/15/1 795/11/1 796/10/1
f 797/15/1 798/16/1 799/12/1 800/11/1

